<?xml version="1.0" encoding="UTF-8"?>
<svg xmlns="http://www.w3.org/2000/svg" xmlns:xlink="http://www.w3.org/1999/xlink" width="792pt" height="360pt" viewBox="0 0 792 360" version="1.1">
<defs>
<clipPath id="clip1">
  <path d="M 5.480469 5.480469 L 786.523438 5.480469 L 786.523438 328.832031 L 5.480469 328.832031 Z M 5.480469 5.480469 "/>
</clipPath>
<clipPath id="clip2">
  <path d="M 60 5.480469 L 61 5.480469 L 61 328.832031 L 60 328.832031 Z M 60 5.480469 "/>
</clipPath>
<clipPath id="clip3">
  <path d="M 257 5.480469 L 259 5.480469 L 259 328.832031 L 257 328.832031 Z M 257 5.480469 "/>
</clipPath>
<clipPath id="clip4">
  <path d="M 454 5.480469 L 456 5.480469 L 456 328.832031 L 454 328.832031 Z M 454 5.480469 "/>
</clipPath>
<clipPath id="clip5">
  <path d="M 652 5.480469 L 653 5.480469 L 653 328.832031 L 652 328.832031 Z M 652 5.480469 "/>
</clipPath>
<clipPath id="clip6">
  <path d="M 158 5.480469 L 160 5.480469 L 160 328.832031 L 158 328.832031 Z M 158 5.480469 "/>
</clipPath>
<clipPath id="clip7">
  <path d="M 356 5.480469 L 358 5.480469 L 358 328.832031 L 356 328.832031 Z M 356 5.480469 "/>
</clipPath>
<clipPath id="clip8">
  <path d="M 553 5.480469 L 555 5.480469 L 555 328.832031 L 553 328.832031 Z M 553 5.480469 "/>
</clipPath>
<clipPath id="clip9">
  <path d="M 750 5.480469 L 752 5.480469 L 752 328.832031 L 750 328.832031 Z M 750 5.480469 "/>
</clipPath>
</defs>
<g id="surface84">
<rect x="0" y="0" width="792" height="360" style="fill:rgb(100%,100%,100%);fill-opacity:1;stroke:none;"/>
<rect x="0" y="0" width="792" height="360" style="fill:rgb(100%,98.039216%,98.039216%);fill-opacity:1;stroke:none;"/>
<g clip-path="url(#clip1)" clip-rule="nonzero">
<path style=" stroke:none;fill-rule:nonzero;fill:rgb(100%,98.039216%,98.039216%);fill-opacity:1;" d="M 5.480469 328.832031 L 786.523438 328.832031 L 786.523438 5.480469 L 5.480469 5.480469 Z M 5.480469 328.832031 "/>
</g>
<g clip-path="url(#clip2)" clip-rule="nonzero">
<path style="fill:none;stroke-width:0.533489;stroke-linecap:butt;stroke-linejoin:round;stroke:rgb(92.156863%,92.156863%,92.156863%);stroke-opacity:1;stroke-miterlimit:10;" d="M 60.703125 328.832031 L 60.703125 5.480469 "/>
</g>
<g clip-path="url(#clip3)" clip-rule="nonzero">
<path style="fill:none;stroke-width:0.533489;stroke-linecap:butt;stroke-linejoin:round;stroke:rgb(92.156863%,92.156863%,92.156863%);stroke-opacity:1;stroke-miterlimit:10;" d="M 257.9375 328.832031 L 257.9375 5.480469 "/>
</g>
<g clip-path="url(#clip4)" clip-rule="nonzero">
<path style="fill:none;stroke-width:0.533489;stroke-linecap:butt;stroke-linejoin:round;stroke:rgb(92.156863%,92.156863%,92.156863%);stroke-opacity:1;stroke-miterlimit:10;" d="M 455.167969 328.832031 L 455.167969 5.480469 "/>
</g>
<g clip-path="url(#clip5)" clip-rule="nonzero">
<path style="fill:none;stroke-width:0.533489;stroke-linecap:butt;stroke-linejoin:round;stroke:rgb(92.156863%,92.156863%,92.156863%);stroke-opacity:1;stroke-miterlimit:10;" d="M 652.402344 328.832031 L 652.402344 5.480469 "/>
</g>
<g clip-path="url(#clip6)" clip-rule="nonzero">
<path style="fill:none;stroke-width:1.066978;stroke-linecap:butt;stroke-linejoin:round;stroke:rgb(92.156863%,92.156863%,92.156863%);stroke-opacity:1;stroke-miterlimit:10;" d="M 159.320313 328.832031 L 159.320313 5.480469 "/>
</g>
<g clip-path="url(#clip7)" clip-rule="nonzero">
<path style="fill:none;stroke-width:1.066978;stroke-linecap:butt;stroke-linejoin:round;stroke:rgb(92.156863%,92.156863%,92.156863%);stroke-opacity:1;stroke-miterlimit:10;" d="M 356.554688 328.832031 L 356.554688 5.480469 "/>
</g>
<g clip-path="url(#clip8)" clip-rule="nonzero">
<path style="fill:none;stroke-width:1.066978;stroke-linecap:butt;stroke-linejoin:round;stroke:rgb(92.156863%,92.156863%,92.156863%);stroke-opacity:1;stroke-miterlimit:10;" d="M 553.785156 328.832031 L 553.785156 5.480469 "/>
</g>
<g clip-path="url(#clip9)" clip-rule="nonzero">
<path style="fill:none;stroke-width:1.066978;stroke-linecap:butt;stroke-linejoin:round;stroke:rgb(92.156863%,92.156863%,92.156863%);stroke-opacity:1;stroke-miterlimit:10;" d="M 751.019531 328.832031 L 751.019531 5.480469 "/>
</g>
<path style=" stroke:none;fill-rule:nonzero;fill:rgb(30.196078%,30.196078%,30.196078%);fill-opacity:1;" d="M 154.816406 339.90625 L 154.816406 339.253906 L 156.53125 339.253906 L 156.53125 334.308594 L 156.46875 334.308594 L 154.921875 335.75 L 154.488281 335.285156 L 156.117188 333.761719 L 157.269531 333.761719 L 157.269531 339.253906 L 158.855469 339.253906 L 158.855469 339.90625 Z M 154.816406 339.90625 "/>
<path style=" stroke:none;fill-rule:nonzero;fill:rgb(30.196078%,30.196078%,30.196078%);fill-opacity:1;" d="M 161.960938 340.011719 L 161.746094 340.003906 L 161.542969 339.976563 L 161.355469 339.9375 L 161.175781 339.878906 L 161.007813 339.800781 L 160.851563 339.710938 L 160.710938 339.601563 L 160.578125 339.476563 L 160.457031 339.332031 L 160.351563 339.175781 L 160.253906 339 L 160.167969 338.8125 L 160.09375 338.613281 L 160.03125 338.398438 L 159.972656 338.171875 L 159.929688 337.929688 L 159.894531 337.675781 L 159.867188 337.410156 L 159.855469 337.128906 L 159.847656 336.835938 L 159.855469 336.539063 L 159.867188 336.257813 L 159.894531 335.992188 L 159.929688 335.738281 L 159.972656 335.496094 L 160.03125 335.269531 L 160.09375 335.054688 L 160.167969 334.855469 L 160.253906 334.667969 L 160.351563 334.492188 L 160.457031 334.335938 L 160.578125 334.191406 L 160.710938 334.066406 L 160.851563 333.957031 L 161.007813 333.867188 L 161.175781 333.789063 L 161.355469 333.734375 L 161.542969 333.691406 L 161.746094 333.664063 L 161.960938 333.65625 L 162.175781 333.664063 L 162.375 333.691406 L 162.566406 333.734375 L 162.746094 333.789063 L 162.910156 333.867188 L 163.066406 333.957031 L 163.207031 334.066406 L 163.339844 334.191406 L 163.457031 334.335938 L 163.5625 334.492188 L 163.660156 334.667969 L 163.746094 334.855469 L 163.824219 335.054688 L 163.890625 335.269531 L 163.945313 335.496094 L 163.992188 335.738281 L 164.027344 335.992188 L 164.050781 336.257813 L 164.066406 336.539063 L 164.074219 336.835938 L 164.066406 337.128906 L 164.050781 337.410156 L 164.027344 337.675781 L 163.992188 337.929688 L 163.945313 338.171875 L 163.890625 338.398438 L 163.824219 338.613281 L 163.746094 338.8125 L 163.660156 339 L 163.5625 339.175781 L 163.457031 339.332031 L 163.339844 339.476563 L 163.207031 339.601563 L 163.066406 339.710938 L 162.910156 339.800781 L 162.746094 339.878906 L 162.566406 339.9375 L 162.375 339.976563 L 162.175781 340.003906 Z M 161.960938 339.367188 L 162.03125 339.367188 L 162.101563 339.363281 L 162.167969 339.355469 L 162.234375 339.34375 L 162.296875 339.332031 L 162.355469 339.316406 L 162.414063 339.296875 L 162.46875 339.273438 L 162.578125 339.21875 L 162.625 339.1875 L 162.675781 339.152344 L 162.722656 339.117188 L 162.808594 339.039063 L 162.847656 338.996094 L 162.886719 338.949219 L 162.921875 338.902344 L 162.957031 338.851563 L 162.992188 338.796875 L 163.019531 338.742188 L 163.050781 338.683594 L 163.078125 338.625 L 163.125 338.5 L 163.148438 338.433594 L 163.167969 338.367188 L 163.1875 338.296875 L 163.203125 338.226563 L 163.234375 338.078125 L 163.246094 338.003906 L 163.257813 337.925781 L 163.269531 337.84375 L 163.277344 337.765625 L 163.285156 337.683594 L 163.292969 337.597656 L 163.296875 337.511719 L 163.296875 336.15625 L 163.292969 336.070313 L 163.285156 335.984375 L 163.277344 335.902344 L 163.269531 335.824219 L 163.257813 335.742188 L 163.246094 335.664063 L 163.234375 335.589844 L 163.203125 335.441406 L 163.1875 335.371094 L 163.167969 335.300781 L 163.148438 335.234375 L 163.125 335.167969 L 163.078125 335.042969 L 163.050781 334.984375 L 163.019531 334.925781 L 162.992188 334.871094 L 162.957031 334.816406 L 162.921875 334.765625 L 162.886719 334.71875 L 162.847656 334.671875 L 162.808594 334.628906 L 162.722656 334.550781 L 162.675781 334.515625 L 162.625 334.480469 L 162.578125 334.449219 L 162.46875 334.394531 L 162.414063 334.371094 L 162.355469 334.351563 L 162.296875 334.335938 L 162.234375 334.324219 L 162.167969 334.3125 L 162.101563 334.304688 L 162.03125 334.300781 L 161.890625 334.300781 L 161.820313 334.304688 L 161.753906 334.3125 L 161.6875 334.324219 L 161.625 334.335938 L 161.566406 334.351563 L 161.507813 334.371094 L 161.453125 334.394531 L 161.34375 334.449219 L 161.292969 334.480469 L 161.199219 334.550781 L 161.113281 334.628906 L 161.074219 334.671875 L 161.035156 334.71875 L 161 334.765625 L 160.964844 334.816406 L 160.929688 334.871094 L 160.902344 334.925781 L 160.871094 334.984375 L 160.84375 335.042969 L 160.816406 335.105469 L 160.792969 335.167969 L 160.769531 335.234375 L 160.75 335.300781 L 160.710938 335.441406 L 160.679688 335.589844 L 160.667969 335.664063 L 160.65625 335.742188 L 160.648438 335.824219 L 160.640625 335.902344 L 160.632813 335.984375 L 160.625 336.15625 L 160.625 337.511719 L 160.632813 337.683594 L 160.640625 337.765625 L 160.648438 337.84375 L 160.65625 337.925781 L 160.667969 338.003906 L 160.679688 338.078125 L 160.710938 338.226563 L 160.75 338.367188 L 160.769531 338.433594 L 160.792969 338.5 L 160.816406 338.5625 L 160.84375 338.625 L 160.871094 338.683594 L 160.902344 338.742188 L 160.929688 338.796875 L 160.964844 338.851563 L 161 338.902344 L 161.035156 338.949219 L 161.074219 338.996094 L 161.113281 339.039063 L 161.199219 339.117188 L 161.292969 339.1875 L 161.34375 339.21875 L 161.453125 339.273438 L 161.507813 339.296875 L 161.566406 339.316406 L 161.625 339.332031 L 161.6875 339.34375 L 161.753906 339.355469 L 161.820313 339.363281 L 161.890625 339.367188 Z M 161.960938 339.367188 "/>
<path style=" stroke:none;fill-rule:nonzero;fill:rgb(30.196078%,30.196078%,30.196078%);fill-opacity:1;" d="M 352.046875 339.90625 L 352.046875 339.253906 L 353.765625 339.253906 L 353.765625 334.308594 L 353.703125 334.308594 L 352.152344 335.75 L 351.722656 335.285156 L 353.351563 333.761719 L 354.503906 333.761719 L 354.503906 339.253906 L 356.085938 339.253906 L 356.085938 339.90625 Z M 352.046875 339.90625 "/>
<path style=" stroke:none;fill-rule:nonzero;fill:rgb(30.196078%,30.196078%,30.196078%);fill-opacity:1;" d="M 360.9375 334.414063 L 358.242188 334.414063 L 358.066406 336.753906 L 358.128906 336.753906 L 358.171875 336.695313 L 358.21875 336.636719 L 358.3125 336.527344 L 358.410156 336.429688 L 358.460938 336.382813 L 358.515625 336.339844 L 358.566406 336.300781 L 358.621094 336.261719 L 358.679688 336.226563 L 358.742188 336.195313 L 358.808594 336.167969 L 358.878906 336.144531 L 358.953125 336.125 L 359.03125 336.105469 L 359.113281 336.09375 L 359.292969 336.078125 L 359.464844 336.078125 L 359.542969 336.082031 L 359.617188 336.089844 L 359.695313 336.097656 L 359.769531 336.109375 L 359.910156 336.140625 L 359.980469 336.160156 L 360.050781 336.183594 L 360.183594 336.238281 L 360.246094 336.265625 L 360.308594 336.296875 L 360.371094 336.332031 L 360.488281 336.410156 L 360.542969 336.449219 L 360.597656 336.492188 L 360.699219 336.585938 L 360.792969 336.6875 L 360.878906 336.796875 L 360.917969 336.855469 L 360.953125 336.914063 L 360.988281 336.976563 L 361.019531 337.039063 L 361.050781 337.109375 L 361.078125 337.175781 L 361.101563 337.25 L 361.128906 337.320313 L 361.148438 337.398438 L 361.167969 337.472656 L 361.183594 337.554688 L 361.195313 337.632813 L 361.203125 337.71875 L 361.210938 337.800781 L 361.214844 337.890625 L 361.21875 337.976563 L 361.210938 338.15625 L 361.203125 338.242188 L 361.195313 338.324219 L 361.183594 338.410156 L 361.167969 338.492188 L 361.148438 338.570313 L 361.128906 338.652344 L 361.101563 338.730469 L 361.078125 338.804688 L 361.046875 338.878906 L 361.015625 338.949219 L 360.980469 339.019531 L 360.902344 339.152344 L 360.859375 339.214844 L 360.816406 339.273438 L 360.765625 339.335938 L 360.714844 339.390625 L 360.664063 339.449219 L 360.609375 339.5 L 360.550781 339.546875 L 360.492188 339.597656 L 360.433594 339.640625 L 360.367188 339.683594 L 360.234375 339.761719 L 360.160156 339.796875 L 360.089844 339.832031 L 360.011719 339.859375 L 359.933594 339.890625 L 359.855469 339.914063 L 359.773438 339.9375 L 359.691406 339.957031 L 359.519531 339.988281 L 359.339844 340.003906 L 359.246094 340.007813 L 359.148438 340.011719 L 359.074219 340.011719 L 358.925781 340.003906 L 358.714844 339.980469 L 358.652344 339.96875 L 358.585938 339.953125 L 358.523438 339.941406 L 358.464844 339.921875 L 358.40625 339.90625 L 358.347656 339.886719 L 358.292969 339.863281 L 358.242188 339.84375 L 358.1875 339.820313 L 358.136719 339.796875 L 358.085938 339.769531 L 357.992188 339.714844 L 357.945313 339.683594 L 357.898438 339.65625 L 357.8125 339.59375 L 357.769531 339.558594 L 357.726563 339.527344 L 357.648438 339.457031 L 357.613281 339.421875 L 357.574219 339.386719 L 357.539063 339.351563 L 357.507813 339.3125 L 357.472656 339.277344 L 357.316406 339.082031 L 357.289063 339.042969 L 357.257813 339.003906 L 357.230469 338.964844 L 357.785156 338.542969 L 357.902344 338.71875 L 357.972656 338.8125 L 358 338.84375 L 358.023438 338.875 L 358.050781 338.90625 L 358.160156 339.015625 L 358.214844 339.0625 L 358.246094 339.085938 L 358.273438 339.109375 L 358.304688 339.128906 L 358.335938 339.152344 L 358.371094 339.171875 L 358.402344 339.191406 L 358.4375 339.207031 L 358.472656 339.226563 L 358.511719 339.242188 L 358.546875 339.257813 L 358.585938 339.273438 L 358.664063 339.296875 L 358.707031 339.308594 L 358.792969 339.324219 L 358.839844 339.332031 L 358.886719 339.335938 L 358.9375 339.34375 L 358.988281 339.347656 L 359.039063 339.347656 L 359.09375 339.351563 L 359.148438 339.351563 L 359.273438 339.347656 L 359.390625 339.335938 L 359.5 339.320313 L 359.605469 339.296875 L 359.707031 339.265625 L 359.800781 339.230469 L 359.886719 339.1875 L 359.964844 339.136719 L 360.039063 339.078125 L 360.109375 339.015625 L 360.171875 338.945313 L 360.226563 338.871094 L 360.273438 338.792969 L 360.316406 338.707031 L 360.351563 338.613281 L 360.382813 338.515625 L 360.40625 338.414063 L 360.421875 338.308594 L 360.429688 338.195313 L 360.433594 338.074219 L 360.433594 337.988281 L 360.429688 337.867188 L 360.421875 337.753906 L 360.40625 337.648438 L 360.382813 337.542969 L 360.351563 337.449219 L 360.316406 337.355469 L 360.273438 337.269531 L 360.226563 337.191406 L 360.171875 337.113281 L 360.109375 337.046875 L 360.039063 336.980469 L 359.964844 336.925781 L 359.886719 336.875 L 359.800781 336.832031 L 359.707031 336.792969 L 359.605469 336.765625 L 359.5 336.742188 L 359.390625 336.722656 L 359.273438 336.714844 L 359.148438 336.710938 L 359.066406 336.710938 L 358.910156 336.726563 L 358.839844 336.734375 L 358.769531 336.75 L 358.644531 336.789063 L 358.585938 336.8125 L 358.53125 336.839844 L 358.480469 336.871094 L 358.433594 336.898438 L 358.386719 336.929688 L 358.34375 336.964844 L 358.296875 337 L 358.210938 337.070313 L 358.167969 337.109375 L 358.089844 337.1875 L 358.050781 337.230469 L 357.425781 337.140625 L 357.644531 333.761719 L 360.9375 333.761719 Z M 360.9375 334.414063 "/>
<path style=" stroke:none;fill-rule:nonzero;fill:rgb(30.196078%,30.196078%,30.196078%);fill-opacity:1;" d="M 553.195313 339.90625 L 549.167969 339.90625 L 549.167969 339.148438 L 551.171875 337.300781 L 551.257813 337.222656 L 551.339844 337.140625 L 551.496094 336.976563 L 551.570313 336.894531 L 551.640625 336.808594 L 551.773438 336.636719 L 551.835938 336.550781 L 551.894531 336.464844 L 551.949219 336.375 L 552 336.285156 L 552.042969 336.195313 L 552.113281 336.015625 L 552.160156 335.835938 L 552.171875 335.746094 L 552.179688 335.65625 L 552.183594 335.566406 L 552.183594 335.359375 L 552.160156 335.171875 L 552.140625 335.082031 L 552.113281 335 L 552.082031 334.917969 L 552.046875 334.839844 L 552.003906 334.769531 L 551.957031 334.699219 L 551.902344 334.632813 L 551.84375 334.574219 L 551.777344 334.519531 L 551.707031 334.472656 L 551.632813 334.429688 L 551.546875 334.394531 L 551.460938 334.367188 L 551.367188 334.347656 L 551.265625 334.328125 L 551.160156 334.320313 L 551.050781 334.316406 L 550.992188 334.316406 L 550.941406 334.320313 L 550.886719 334.324219 L 550.835938 334.328125 L 550.785156 334.335938 L 550.738281 334.347656 L 550.691406 334.355469 L 550.644531 334.367188 L 550.597656 334.382813 L 550.554688 334.394531 L 550.515625 334.414063 L 550.472656 334.429688 L 550.394531 334.46875 L 550.359375 334.492188 L 550.320313 334.511719 L 550.285156 334.539063 L 550.253906 334.5625 L 550.21875 334.589844 L 550.15625 334.644531 L 550.046875 334.769531 L 549.976563 334.875 L 549.953125 334.914063 L 549.933594 334.949219 L 549.875 335.066406 L 549.828125 335.183594 L 549.8125 335.226563 L 549.800781 335.269531 L 549.785156 335.3125 L 549.773438 335.355469 L 549.113281 335.101563 L 549.171875 334.9375 L 549.195313 334.886719 L 549.214844 334.832031 L 549.242188 334.78125 L 549.265625 334.726563 L 549.320313 334.625 L 549.351563 334.574219 L 549.382813 334.519531 L 549.453125 334.417969 L 549.488281 334.371094 L 549.566406 334.277344 L 549.605469 334.234375 L 549.648438 334.1875 L 549.691406 334.148438 L 549.738281 334.105469 L 549.785156 334.066406 L 549.835938 334.027344 L 549.886719 333.992188 L 549.996094 333.921875 L 550.054688 333.890625 L 550.113281 333.863281 L 550.175781 333.832031 L 550.238281 333.804688 L 550.300781 333.78125 L 550.441406 333.734375 L 550.511719 333.71875 L 550.585938 333.703125 L 550.664063 333.6875 L 550.742188 333.675781 L 550.824219 333.667969 L 550.996094 333.660156 L 551.085938 333.65625 L 551.171875 333.660156 L 551.261719 333.664063 L 551.34375 333.667969 L 551.429688 333.679688 L 551.507813 333.691406 L 551.589844 333.703125 L 551.664063 333.722656 L 551.742188 333.742188 L 551.8125 333.765625 L 551.886719 333.789063 L 551.953125 333.816406 L 552.023438 333.847656 L 552.148438 333.910156 L 552.207031 333.949219 L 552.265625 333.984375 L 552.320313 334.027344 L 552.375 334.066406 L 552.476563 334.160156 L 552.519531 334.207031 L 552.566406 334.257813 L 552.605469 334.308594 L 552.648438 334.363281 L 552.683594 334.417969 L 552.71875 334.476563 L 552.78125 334.59375 L 552.808594 334.65625 L 552.835938 334.722656 L 552.882813 334.855469 L 552.902344 334.921875 L 552.921875 334.992188 L 552.933594 335.066406 L 552.945313 335.136719 L 552.957031 335.210938 L 552.960938 335.289063 L 552.964844 335.363281 L 552.96875 335.445313 L 552.964844 335.515625 L 552.964844 335.585938 L 552.957031 335.65625 L 552.949219 335.722656 L 552.941406 335.792969 L 552.929688 335.859375 L 552.914063 335.921875 L 552.898438 335.988281 L 552.882813 336.050781 L 552.863281 336.113281 L 552.84375 336.171875 L 552.820313 336.234375 L 552.796875 336.292969 L 552.773438 336.355469 L 552.71875 336.472656 L 552.65625 336.589844 L 552.625 336.644531 L 552.589844 336.703125 L 552.554688 336.757813 L 552.515625 336.8125 L 552.476563 336.863281 L 552.4375 336.917969 L 552.394531 336.972656 L 552.347656 337.027344 L 552.304688 337.078125 L 552.257813 337.132813 L 552.207031 337.1875 L 552.15625 337.238281 L 552.109375 337.292969 L 552.058594 337.34375 L 552.007813 337.398438 L 551.953125 337.449219 L 551.902344 337.503906 L 551.847656 337.554688 L 551.792969 337.609375 L 551.734375 337.660156 L 551.679688 337.714844 L 551.621094 337.765625 L 549.96875 339.253906 L 553.195313 339.253906 Z M 553.195313 339.90625 "/>
<path style=" stroke:none;fill-rule:nonzero;fill:rgb(30.196078%,30.196078%,30.196078%);fill-opacity:1;" d="M 556.425781 340.011719 L 556.210938 340.003906 L 556.007813 339.976563 L 555.820313 339.9375 L 555.640625 339.878906 L 555.472656 339.800781 L 555.316406 339.710938 L 555.175781 339.601563 L 555.042969 339.476563 L 554.921875 339.332031 L 554.816406 339.175781 L 554.71875 339 L 554.636719 338.8125 L 554.558594 338.613281 L 554.496094 338.398438 L 554.441406 338.171875 L 554.394531 337.929688 L 554.359375 337.675781 L 554.335938 337.410156 L 554.320313 337.128906 L 554.3125 336.835938 L 554.320313 336.539063 L 554.335938 336.257813 L 554.359375 335.992188 L 554.394531 335.738281 L 554.441406 335.496094 L 554.496094 335.269531 L 554.558594 335.054688 L 554.636719 334.855469 L 554.71875 334.667969 L 554.816406 334.492188 L 554.921875 334.335938 L 555.042969 334.191406 L 555.175781 334.066406 L 555.316406 333.957031 L 555.472656 333.867188 L 555.640625 333.789063 L 555.820313 333.734375 L 556.007813 333.691406 L 556.210938 333.664063 L 556.425781 333.65625 L 556.640625 333.664063 L 556.84375 333.691406 L 557.03125 333.734375 L 557.210938 333.789063 L 557.375 333.867188 L 557.53125 333.957031 L 557.671875 334.066406 L 557.804688 334.191406 L 557.921875 334.335938 L 558.027344 334.492188 L 558.125 334.667969 L 558.210938 334.855469 L 558.289063 335.054688 L 558.355469 335.269531 L 558.410156 335.496094 L 558.457031 335.738281 L 558.492188 335.992188 L 558.519531 336.257813 L 558.53125 336.539063 L 558.539063 336.835938 L 558.53125 337.128906 L 558.519531 337.410156 L 558.492188 337.675781 L 558.457031 337.929688 L 558.410156 338.171875 L 558.355469 338.398438 L 558.289063 338.613281 L 558.210938 338.8125 L 558.125 339 L 558.027344 339.175781 L 557.921875 339.332031 L 557.804688 339.476563 L 557.671875 339.601563 L 557.53125 339.710938 L 557.375 339.800781 L 557.210938 339.878906 L 557.03125 339.9375 L 556.84375 339.976563 L 556.640625 340.003906 Z M 556.425781 339.367188 L 556.496094 339.367188 L 556.566406 339.363281 L 556.632813 339.355469 L 556.699219 339.34375 L 556.761719 339.332031 L 556.820313 339.316406 L 556.878906 339.296875 L 556.9375 339.273438 L 556.988281 339.246094 L 557.042969 339.21875 L 557.09375 339.1875 L 557.1875 339.117188 L 557.273438 339.039063 L 557.3125 338.996094 L 557.351563 338.949219 L 557.386719 338.902344 L 557.421875 338.851563 L 557.457031 338.796875 L 557.488281 338.742188 L 557.542969 338.625 L 557.566406 338.5625 L 557.59375 338.5 L 557.632813 338.367188 L 557.652344 338.296875 L 557.667969 338.226563 L 557.714844 338.003906 L 557.726563 337.925781 L 557.734375 337.84375 L 557.742188 337.765625 L 557.75 337.683594 L 557.757813 337.597656 L 557.761719 337.511719 L 557.761719 337.425781 L 557.765625 337.335938 L 557.765625 336.332031 L 557.761719 336.242188 L 557.761719 336.15625 L 557.757813 336.070313 L 557.75 335.984375 L 557.742188 335.902344 L 557.734375 335.824219 L 557.726563 335.742188 L 557.714844 335.664063 L 557.667969 335.441406 L 557.652344 335.371094 L 557.632813 335.300781 L 557.59375 335.167969 L 557.566406 335.105469 L 557.542969 335.042969 L 557.488281 334.925781 L 557.457031 334.871094 L 557.421875 334.816406 L 557.386719 334.765625 L 557.351563 334.71875 L 557.3125 334.671875 L 557.273438 334.628906 L 557.1875 334.550781 L 557.09375 334.480469 L 557.042969 334.449219 L 556.988281 334.421875 L 556.9375 334.394531 L 556.878906 334.371094 L 556.820313 334.351563 L 556.761719 334.335938 L 556.699219 334.324219 L 556.632813 334.3125 L 556.566406 334.304688 L 556.496094 334.300781 L 556.355469 334.300781 L 556.285156 334.304688 L 556.21875 334.3125 L 556.15625 334.324219 L 556.089844 334.335938 L 556.03125 334.351563 L 555.972656 334.371094 L 555.917969 334.394531 L 555.808594 334.449219 L 555.761719 334.480469 L 555.710938 334.515625 L 555.664063 334.550781 L 555.578125 334.628906 L 555.539063 334.671875 L 555.5 334.71875 L 555.464844 334.765625 L 555.429688 334.816406 L 555.394531 334.871094 L 555.367188 334.925781 L 555.335938 334.984375 L 555.308594 335.042969 L 555.28125 335.105469 L 555.257813 335.167969 L 555.234375 335.234375 L 555.214844 335.300781 L 555.175781 335.441406 L 555.144531 335.589844 L 555.132813 335.664063 L 555.121094 335.742188 L 555.113281 335.824219 L 555.105469 335.902344 L 555.101563 335.984375 L 555.09375 336.070313 L 555.089844 336.15625 L 555.089844 337.511719 L 555.09375 337.597656 L 555.101563 337.683594 L 555.105469 337.765625 L 555.113281 337.84375 L 555.121094 337.925781 L 555.132813 338.003906 L 555.144531 338.078125 L 555.175781 338.226563 L 555.214844 338.367188 L 555.234375 338.433594 L 555.257813 338.5 L 555.28125 338.5625 L 555.308594 338.625 L 555.335938 338.683594 L 555.367188 338.742188 L 555.394531 338.796875 L 555.429688 338.851563 L 555.464844 338.902344 L 555.5 338.949219 L 555.539063 338.996094 L 555.578125 339.039063 L 555.664063 339.117188 L 555.710938 339.152344 L 555.761719 339.1875 L 555.808594 339.21875 L 555.917969 339.273438 L 555.972656 339.296875 L 556.03125 339.316406 L 556.089844 339.332031 L 556.15625 339.34375 L 556.21875 339.355469 L 556.285156 339.363281 L 556.355469 339.367188 Z M 556.425781 339.367188 "/>
<path style=" stroke:none;fill-rule:nonzero;fill:rgb(30.196078%,30.196078%,30.196078%);fill-opacity:1;" d="M 750.429688 339.90625 L 746.398438 339.90625 L 746.398438 339.148438 L 748.40625 337.300781 L 748.488281 337.222656 L 748.652344 337.058594 L 748.800781 336.894531 L 748.941406 336.722656 L 749.066406 336.550781 L 749.125 336.464844 L 749.183594 336.375 L 749.230469 336.285156 L 749.273438 336.195313 L 749.3125 336.105469 L 749.34375 336.015625 L 749.371094 335.925781 L 749.390625 335.835938 L 749.40625 335.746094 L 749.414063 335.65625 L 749.417969 335.566406 L 749.417969 335.460938 L 749.414063 335.359375 L 749.40625 335.265625 L 749.390625 335.171875 L 749.371094 335.082031 L 749.347656 335 L 749.316406 334.917969 L 749.277344 334.839844 L 749.238281 334.769531 L 749.1875 334.699219 L 749.136719 334.632813 L 749.078125 334.574219 L 749.011719 334.519531 L 748.941406 334.472656 L 748.863281 334.429688 L 748.78125 334.394531 L 748.691406 334.367188 L 748.597656 334.347656 L 748.5 334.328125 L 748.394531 334.320313 L 748.28125 334.316406 L 748.226563 334.316406 L 748.171875 334.320313 L 748.121094 334.324219 L 748.066406 334.328125 L 748.019531 334.335938 L 747.96875 334.347656 L 747.921875 334.355469 L 747.875 334.367188 L 747.832031 334.382813 L 747.789063 334.394531 L 747.746094 334.414063 L 747.707031 334.429688 L 747.628906 334.46875 L 747.589844 334.492188 L 747.554688 334.511719 L 747.519531 334.539063 L 747.484375 334.5625 L 747.453125 334.589844 L 747.417969 334.617188 L 747.390625 334.644531 L 747.363281 334.675781 L 747.332031 334.707031 L 747.308594 334.738281 L 747.28125 334.769531 L 747.253906 334.804688 L 747.207031 334.875 L 747.1875 334.914063 L 747.164063 334.949219 L 747.144531 334.988281 L 747.128906 335.027344 L 747.109375 335.066406 L 747.0625 335.183594 L 747.03125 335.269531 L 747.007813 335.355469 L 746.347656 335.101563 L 746.363281 335.046875 L 746.402344 334.9375 L 746.425781 334.886719 L 746.449219 334.832031 L 746.472656 334.78125 L 746.5 334.726563 L 746.582031 334.574219 L 746.617188 334.519531 L 746.648438 334.46875 L 746.683594 334.417969 L 746.722656 334.371094 L 746.757813 334.324219 L 746.800781 334.277344 L 746.839844 334.234375 L 746.882813 334.1875 L 746.925781 334.148438 L 746.96875 334.105469 L 747.070313 334.027344 L 747.121094 333.992188 L 747.230469 333.921875 L 747.289063 333.890625 L 747.347656 333.863281 L 747.40625 333.832031 L 747.46875 333.804688 L 747.601563 333.757813 L 747.671875 333.734375 L 747.820313 333.703125 L 747.898438 333.6875 L 747.976563 333.675781 L 748.058594 333.667969 L 748.140625 333.664063 L 748.226563 333.660156 L 748.316406 333.65625 L 748.40625 333.660156 L 748.578125 333.667969 L 748.742188 333.691406 L 748.820313 333.703125 L 748.898438 333.722656 L 748.972656 333.742188 L 749.046875 333.765625 L 749.117188 333.789063 L 749.1875 333.816406 L 749.320313 333.878906 L 749.382813 333.910156 L 749.441406 333.949219 L 749.5 333.984375 L 749.554688 334.027344 L 749.609375 334.066406 L 749.660156 334.113281 L 749.753906 334.207031 L 749.839844 334.308594 L 749.917969 334.417969 L 749.953125 334.476563 L 750.015625 334.59375 L 750.042969 334.65625 L 750.066406 334.722656 L 750.09375 334.789063 L 750.117188 334.855469 L 750.136719 334.921875 L 750.152344 334.992188 L 750.167969 335.066406 L 750.179688 335.136719 L 750.1875 335.210938 L 750.195313 335.289063 L 750.199219 335.363281 L 750.199219 335.515625 L 750.191406 335.65625 L 750.183594 335.722656 L 750.175781 335.792969 L 750.164063 335.859375 L 750.148438 335.921875 L 750.132813 335.988281 L 750.09375 336.113281 L 750.074219 336.171875 L 750.054688 336.234375 L 750.03125 336.292969 L 750.003906 336.355469 L 749.921875 336.53125 L 749.890625 336.589844 L 749.855469 336.644531 L 749.820313 336.703125 L 749.75 336.8125 L 749.710938 336.863281 L 749.582031 337.027344 L 749.535156 337.078125 L 749.441406 337.1875 L 749.390625 337.238281 L 749.339844 337.292969 L 749.289063 337.34375 L 749.238281 337.398438 L 749.132813 337.503906 L 749.078125 337.554688 L 749.023438 337.609375 L 748.96875 337.660156 L 748.910156 337.714844 L 748.855469 337.765625 L 747.199219 339.253906 L 750.429688 339.253906 Z M 750.429688 339.90625 "/>
<path style=" stroke:none;fill-rule:nonzero;fill:rgb(30.196078%,30.196078%,30.196078%);fill-opacity:1;" d="M 755.402344 334.414063 L 752.707031 334.414063 L 752.53125 336.753906 L 752.59375 336.753906 L 752.636719 336.695313 L 752.683594 336.636719 L 752.777344 336.527344 L 752.875 336.429688 L 752.929688 336.382813 L 752.980469 336.339844 L 753.03125 336.300781 L 753.085938 336.261719 L 753.144531 336.226563 L 753.207031 336.195313 L 753.273438 336.167969 L 753.34375 336.144531 L 753.417969 336.125 L 753.496094 336.105469 L 753.582031 336.09375 L 753.667969 336.085938 L 753.757813 336.078125 L 753.929688 336.078125 L 754.007813 336.082031 L 754.085938 336.089844 L 754.160156 336.097656 L 754.234375 336.109375 L 754.375 336.140625 L 754.445313 336.160156 L 754.515625 336.183594 L 754.714844 336.265625 L 754.777344 336.296875 L 754.835938 336.332031 L 754.953125 336.410156 L 755.007813 336.449219 L 755.0625 336.492188 L 755.164063 336.585938 L 755.257813 336.6875 L 755.34375 336.796875 L 755.382813 336.855469 L 755.417969 336.914063 L 755.453125 336.976563 L 755.484375 337.039063 L 755.515625 337.109375 L 755.542969 337.175781 L 755.570313 337.25 L 755.59375 337.320313 L 755.613281 337.398438 L 755.632813 337.472656 L 755.648438 337.554688 L 755.660156 337.632813 L 755.671875 337.71875 L 755.675781 337.800781 L 755.679688 337.890625 L 755.683594 337.976563 L 755.675781 338.15625 L 755.671875 338.242188 L 755.660156 338.324219 L 755.648438 338.410156 L 755.632813 338.492188 L 755.613281 338.570313 L 755.59375 338.652344 L 755.570313 338.730469 L 755.542969 338.804688 L 755.511719 338.878906 L 755.480469 338.949219 L 755.445313 339.019531 L 755.367188 339.152344 L 755.324219 339.214844 L 755.28125 339.273438 L 755.230469 339.335938 L 755.179688 339.390625 L 755.128906 339.449219 L 755.074219 339.5 L 755.019531 339.546875 L 754.957031 339.597656 L 754.898438 339.640625 L 754.832031 339.683594 L 754.699219 339.761719 L 754.628906 339.796875 L 754.554688 339.832031 L 754.476563 339.859375 L 754.398438 339.890625 L 754.242188 339.9375 L 754.15625 339.957031 L 754.074219 339.972656 L 753.984375 339.988281 L 753.804688 340.003906 L 753.710938 340.007813 L 753.613281 340.011719 L 753.539063 340.011719 L 753.390625 340.003906 L 753.25 339.988281 L 753.183594 339.980469 L 753.117188 339.96875 L 753.050781 339.953125 L 752.988281 339.941406 L 752.929688 339.921875 L 752.871094 339.90625 L 752.816406 339.886719 L 752.757813 339.863281 L 752.707031 339.84375 L 752.652344 339.820313 L 752.601563 339.796875 L 752.550781 339.769531 L 752.457031 339.714844 L 752.410156 339.683594 L 752.363281 339.65625 L 752.277344 339.59375 L 752.234375 339.558594 L 752.195313 339.527344 L 752.152344 339.492188 L 752.113281 339.457031 L 752.078125 339.421875 L 752.039063 339.386719 L 752.003906 339.351563 L 751.972656 339.3125 L 751.9375 339.277344 L 751.78125 339.082031 L 751.726563 339.003906 L 751.695313 338.964844 L 752.25 338.542969 L 752.367188 338.71875 L 752.4375 338.8125 L 752.464844 338.84375 L 752.488281 338.875 L 752.515625 338.90625 L 752.625 339.015625 L 752.652344 339.039063 L 752.683594 339.0625 L 752.738281 339.109375 L 752.769531 339.128906 L 752.800781 339.152344 L 752.835938 339.171875 L 752.867188 339.191406 L 752.902344 339.207031 L 752.9375 339.226563 L 752.976563 339.242188 L 753.011719 339.257813 L 753.050781 339.273438 L 753.128906 339.296875 L 753.171875 339.308594 L 753.257813 339.324219 L 753.304688 339.332031 L 753.351563 339.335938 L 753.402344 339.34375 L 753.453125 339.347656 L 753.503906 339.347656 L 753.558594 339.351563 L 753.613281 339.351563 L 753.738281 339.347656 L 753.855469 339.335938 L 753.96875 339.320313 L 754.074219 339.296875 L 754.171875 339.265625 L 754.265625 339.230469 L 754.351563 339.1875 L 754.429688 339.136719 L 754.503906 339.078125 L 754.574219 339.015625 L 754.636719 338.945313 L 754.691406 338.871094 L 754.738281 338.792969 L 754.78125 338.707031 L 754.816406 338.613281 L 754.847656 338.515625 L 754.871094 338.414063 L 754.886719 338.308594 L 754.894531 338.195313 L 754.898438 338.074219 L 754.898438 337.988281 L 754.894531 337.867188 L 754.886719 337.753906 L 754.871094 337.648438 L 754.847656 337.542969 L 754.816406 337.449219 L 754.78125 337.355469 L 754.738281 337.269531 L 754.691406 337.191406 L 754.636719 337.113281 L 754.574219 337.046875 L 754.503906 336.980469 L 754.429688 336.925781 L 754.351563 336.875 L 754.265625 336.832031 L 754.171875 336.792969 L 754.074219 336.765625 L 753.96875 336.742188 L 753.855469 336.722656 L 753.738281 336.714844 L 753.613281 336.710938 L 753.53125 336.710938 L 753.453125 336.71875 L 753.304688 336.734375 L 753.234375 336.75 L 753.109375 336.789063 L 753.050781 336.8125 L 752.996094 336.839844 L 752.945313 336.871094 L 752.898438 336.898438 L 752.851563 336.929688 L 752.808594 336.964844 L 752.761719 337 L 752.675781 337.070313 L 752.636719 337.109375 L 752.59375 337.148438 L 752.554688 337.1875 L 752.515625 337.230469 L 751.890625 337.140625 L 752.109375 333.761719 L 755.402344 333.761719 Z M 755.402344 334.414063 "/>
<path style=" stroke:none;fill-rule:nonzero;fill:rgb(0%,0%,0%);fill-opacity:1;" d="M 758.964844 352.320313 L 758.808594 352.316406 L 758.660156 352.308594 L 758.511719 352.292969 L 758.371094 352.273438 L 758.238281 352.246094 L 758.105469 352.214844 L 757.980469 352.175781 L 757.859375 352.128906 L 757.746094 352.078125 L 757.632813 352.023438 L 757.53125 351.960938 L 757.429688 351.890625 L 757.332031 351.820313 L 757.234375 351.746094 L 757.140625 351.667969 L 757.050781 351.582031 L 756.964844 351.496094 L 756.800781 351.308594 L 756.722656 351.210938 L 757.347656 350.703125 L 757.414063 350.785156 L 757.484375 350.863281 L 757.554688 350.9375 L 757.625 351.007813 L 757.699219 351.074219 L 757.773438 351.136719 L 757.847656 351.195313 L 757.925781 351.253906 L 758.003906 351.304688 L 758.085938 351.351563 L 758.167969 351.394531 L 758.253906 351.433594 L 758.339844 351.464844 L 758.433594 351.492188 L 758.621094 351.539063 L 758.71875 351.554688 L 758.820313 351.5625 L 758.925781 351.570313 L 759.03125 351.574219 L 759.140625 351.570313 L 759.246094 351.5625 L 759.34375 351.550781 L 759.441406 351.535156 L 759.53125 351.511719 L 759.613281 351.484375 L 759.691406 351.453125 L 759.765625 351.417969 L 759.835938 351.375 L 759.902344 351.332031 L 759.960938 351.28125 L 760.015625 351.226563 L 760.0625 351.167969 L 760.105469 351.105469 L 760.140625 351.039063 L 760.167969 350.96875 L 760.191406 350.894531 L 760.207031 350.816406 L 760.214844 350.734375 L 760.21875 350.648438 L 760.21875 350.582031 L 760.210938 350.519531 L 760.199219 350.460938 L 760.183594 350.398438 L 760.164063 350.34375 L 760.140625 350.289063 L 760.113281 350.234375 L 760.042969 350.132813 L 760 350.085938 L 759.953125 350.039063 L 759.902344 349.996094 L 759.84375 349.957031 L 759.777344 349.917969 L 759.703125 349.882813 L 759.621094 349.851563 L 759.535156 349.824219 L 759.441406 349.800781 L 759.339844 349.777344 L 759.230469 349.757813 L 758.777344 349.691406 L 758.621094 349.667969 L 758.546875 349.652344 L 758.472656 349.640625 L 758.398438 349.621094 L 758.328125 349.605469 L 758.1875 349.566406 L 758.121094 349.546875 L 758.050781 349.527344 L 757.988281 349.5 L 757.921875 349.476563 L 757.863281 349.449219 L 757.800781 349.417969 L 757.742188 349.390625 L 757.683594 349.359375 L 757.519531 349.253906 L 757.46875 349.21875 L 757.421875 349.179688 L 757.375 349.136719 L 757.332031 349.09375 L 757.253906 349 L 757.214844 348.949219 L 757.179688 348.898438 L 757.144531 348.84375 L 757.113281 348.789063 L 757.085938 348.734375 L 757.058594 348.675781 L 757.035156 348.617188 L 757.015625 348.554688 L 756.984375 348.421875 L 756.972656 348.351563 L 756.964844 348.28125 L 756.957031 348.207031 L 756.953125 348.128906 L 756.953125 347.96875 L 756.957031 347.890625 L 756.964844 347.8125 L 756.976563 347.734375 L 756.992188 347.660156 L 757.007813 347.589844 L 757.027344 347.519531 L 757.050781 347.453125 L 757.105469 347.328125 L 757.136719 347.265625 L 757.171875 347.203125 L 757.207031 347.144531 L 757.246094 347.089844 L 757.289063 347.035156 L 757.375 346.933594 L 757.421875 346.886719 L 757.472656 346.839844 L 757.523438 346.796875 L 757.582031 346.757813 L 757.636719 346.71875 L 757.761719 346.648438 L 757.824219 346.617188 L 757.890625 346.585938 L 757.957031 346.558594 L 758.027344 346.535156 L 758.101563 346.511719 L 758.171875 346.492188 L 758.25 346.46875 L 758.324219 346.449219 L 758.402344 346.433594 L 758.480469 346.421875 L 758.5625 346.40625 L 758.640625 346.398438 L 758.722656 346.390625 L 758.808594 346.386719 L 758.890625 346.382813 L 758.976563 346.378906 L 759.113281 346.382813 L 759.246094 346.390625 L 759.371094 346.402344 L 759.492188 346.417969 L 759.613281 346.441406 L 759.726563 346.46875 L 759.832031 346.5 L 759.9375 346.535156 L 760.132813 346.621094 L 760.226563 346.671875 L 760.316406 346.726563 L 760.40625 346.785156 L 760.492188 346.847656 L 760.574219 346.910156 L 760.65625 346.980469 L 760.8125 347.128906 L 760.886719 347.210938 L 760.957031 347.292969 L 760.375 347.820313 L 760.335938 347.769531 L 760.292969 347.71875 L 760.246094 347.667969 L 760.195313 347.621094 L 760.140625 347.570313 L 760.085938 347.523438 L 760.027344 347.480469 L 759.960938 347.433594 L 759.894531 347.390625 L 759.824219 347.347656 L 759.75 347.308594 L 759.671875 347.269531 L 759.589844 347.238281 L 759.503906 347.207031 L 759.414063 347.183594 L 759.320313 347.164063 L 759.222656 347.148438 L 759.125 347.136719 L 759.019531 347.128906 L 758.910156 347.128906 L 758.699219 347.136719 L 758.605469 347.148438 L 758.511719 347.167969 L 758.425781 347.1875 L 758.34375 347.214844 L 758.269531 347.246094 L 758.199219 347.285156 L 758.132813 347.324219 L 758.074219 347.371094 L 758.023438 347.417969 L 757.976563 347.46875 L 757.933594 347.523438 L 757.898438 347.582031 L 757.867188 347.644531 L 757.84375 347.710938 L 757.824219 347.78125 L 757.8125 347.851563 L 757.800781 347.929688 L 757.800781 348.089844 L 757.8125 348.167969 L 757.824219 348.238281 L 757.84375 348.304688 L 757.867188 348.367188 L 757.898438 348.425781 L 757.933594 348.480469 L 757.976563 348.53125 L 758.023438 348.574219 L 758.074219 348.613281 L 758.132813 348.648438 L 758.199219 348.683594 L 758.269531 348.71875 L 758.34375 348.746094 L 758.421875 348.777344 L 758.503906 348.800781 L 758.59375 348.828125 L 758.6875 348.847656 L 758.785156 348.871094 L 758.886719 348.886719 L 759.328125 348.953125 L 759.511719 348.984375 L 759.683594 349.023438 L 759.847656 349.0625 L 759.996094 349.109375 L 760.136719 349.164063 L 760.265625 349.222656 L 760.382813 349.285156 L 760.488281 349.351563 L 760.585938 349.425781 L 760.671875 349.503906 L 760.746094 349.585938 L 760.8125 349.671875 L 760.871094 349.765625 L 760.925781 349.863281 L 760.96875 349.964844 L 761.003906 350.070313 L 761.03125 350.183594 L 761.050781 350.300781 L 761.0625 350.421875 L 761.066406 350.550781 L 761.0625 350.710938 L 761.042969 350.867188 L 761.015625 351.011719 L 760.976563 351.152344 L 760.925781 351.285156 L 760.863281 351.414063 L 760.792969 351.53125 L 760.707031 351.644531 L 760.613281 351.75 L 760.503906 351.847656 L 760.390625 351.9375 L 760.265625 352.019531 L 760.132813 352.089844 L 759.988281 352.148438 L 759.839844 352.203125 L 759.683594 352.246094 L 759.515625 352.277344 L 759.339844 352.300781 L 759.15625 352.316406 Z M 758.964844 352.320313 "/>
<path style=" stroke:none;fill-rule:nonzero;fill:rgb(0%,0%,0%);fill-opacity:1;" d="M 762.617188 346.511719 L 763.496094 346.511719 L 763.496094 347.4375 L 763.542969 347.4375 L 763.585938 347.332031 L 763.636719 347.230469 L 763.691406 347.140625 L 763.75 347.050781 L 763.8125 346.96875 L 763.875 346.894531 L 763.945313 346.820313 L 764.019531 346.757813 L 764.097656 346.699219 L 764.179688 346.644531 L 764.265625 346.59375 L 764.359375 346.550781 L 764.453125 346.511719 L 764.550781 346.476563 L 764.648438 346.445313 L 764.753906 346.421875 L 764.859375 346.40625 L 764.972656 346.390625 L 765.085938 346.382813 L 765.203125 346.378906 L 765.308594 346.382813 L 765.511719 346.398438 L 765.609375 346.414063 L 765.707031 346.433594 L 765.800781 346.457031 L 765.894531 346.484375 L 765.984375 346.515625 L 766.074219 346.550781 L 766.160156 346.589844 L 766.242188 346.632813 L 766.324219 346.679688 L 766.40625 346.730469 L 766.480469 346.785156 L 766.554688 346.84375 L 766.625 346.902344 L 766.695313 346.96875 L 766.761719 347.035156 L 766.886719 347.183594 L 766.945313 347.261719 L 767.003906 347.34375 L 767.054688 347.429688 L 767.15625 347.609375 L 767.199219 347.703125 L 767.242188 347.804688 L 767.28125 347.90625 L 767.316406 348.011719 L 767.347656 348.117188 L 767.378906 348.230469 L 767.40625 348.34375 L 767.433594 348.460938 L 767.453125 348.578125 L 767.472656 348.703125 L 767.484375 348.824219 L 767.507813 349.082031 L 767.511719 349.214844 L 767.511719 349.484375 L 767.507813 349.617188 L 767.484375 349.875 L 767.472656 350 L 767.433594 350.242188 L 767.40625 350.355469 L 767.378906 350.472656 L 767.316406 350.691406 L 767.28125 350.796875 L 767.242188 350.898438 L 767.199219 350.996094 L 767.15625 351.089844 L 767.105469 351.183594 L 767.054688 351.273438 L 767.003906 351.355469 L 766.945313 351.4375 L 766.886719 351.515625 L 766.824219 351.59375 L 766.761719 351.664063 L 766.695313 351.734375 L 766.554688 351.859375 L 766.480469 351.917969 L 766.40625 351.96875 L 766.324219 352.019531 L 766.160156 352.113281 L 766.074219 352.152344 L 765.984375 352.1875 L 765.894531 352.21875 L 765.800781 352.246094 L 765.707031 352.269531 L 765.511719 352.300781 L 765.410156 352.3125 L 765.308594 352.320313 L 765.203125 352.320313 L 764.976563 352.308594 L 764.765625 352.277344 L 764.566406 352.226563 L 764.382813 352.152344 L 764.210938 352.054688 L 764.050781 351.941406 L 763.902344 351.804688 L 763.769531 351.644531 L 763.648438 351.464844 L 763.542969 351.265625 L 763.496094 351.265625 L 763.496094 354.386719 L 762.617188 354.386719 Z M 764.960938 351.527344 L 765.105469 351.523438 L 765.246094 351.511719 L 765.378906 351.488281 L 765.507813 351.453125 L 765.628906 351.414063 L 765.742188 351.363281 L 765.851563 351.300781 L 765.953125 351.234375 L 766.046875 351.15625 L 766.136719 351.066406 L 766.21875 350.96875 L 766.292969 350.867188 L 766.355469 350.757813 L 766.410156 350.640625 L 766.460938 350.523438 L 766.496094 350.394531 L 766.527344 350.265625 L 766.550781 350.125 L 766.5625 349.984375 L 766.566406 349.835938 L 766.566406 348.867188 L 766.5625 348.71875 L 766.550781 348.574219 L 766.527344 348.4375 L 766.496094 348.308594 L 766.460938 348.183594 L 766.410156 348.0625 L 766.355469 347.949219 L 766.292969 347.84375 L 766.21875 347.742188 L 766.136719 347.644531 L 766.046875 347.554688 L 765.953125 347.476563 L 765.851563 347.40625 L 765.742188 347.34375 L 765.628906 347.289063 L 765.507813 347.25 L 765.378906 347.214844 L 765.246094 347.191406 L 765.105469 347.175781 L 764.960938 347.171875 L 764.902344 347.171875 L 764.785156 347.179688 L 764.667969 347.195313 L 764.613281 347.203125 L 764.554688 347.214844 L 764.5 347.230469 L 764.445313 347.242188 L 764.386719 347.261719 L 764.285156 347.292969 L 764.234375 347.3125 L 764.1875 347.332031 L 764.140625 347.355469 L 764.09375 347.375 L 764.050781 347.402344 L 764.007813 347.425781 L 763.96875 347.453125 L 763.925781 347.480469 L 763.886719 347.511719 L 763.851563 347.539063 L 763.816406 347.574219 L 763.78125 347.605469 L 763.746094 347.640625 L 763.714844 347.675781 L 763.6875 347.714844 L 763.660156 347.75 L 763.632813 347.792969 L 763.585938 347.871094 L 763.566406 347.914063 L 763.550781 347.953125 L 763.539063 347.996094 L 763.523438 348.039063 L 763.507813 348.125 L 763.5 348.171875 L 763.5 348.214844 L 763.496094 348.261719 L 763.496094 350.375 L 763.5 350.429688 L 763.5 350.480469 L 763.507813 350.535156 L 763.523438 350.636719 L 763.539063 350.683594 L 763.550781 350.730469 L 763.566406 350.777344 L 763.585938 350.824219 L 763.632813 350.910156 L 763.714844 351.027344 L 763.746094 351.0625 L 763.851563 351.167969 L 763.886719 351.199219 L 763.925781 351.230469 L 763.96875 351.257813 L 764.007813 351.285156 L 764.050781 351.3125 L 764.09375 351.335938 L 764.140625 351.359375 L 764.234375 351.398438 L 764.285156 351.417969 L 764.335938 351.433594 L 764.386719 351.453125 L 764.445313 351.464844 L 764.5 351.480469 L 764.554688 351.492188 L 764.613281 351.5 L 764.667969 351.507813 L 764.785156 351.523438 L 764.84375 351.527344 Z M 764.960938 351.527344 "/>
<path style=" stroke:none;fill-rule:nonzero;fill:rgb(0%,0%,0%);fill-opacity:1;" d="M 771.132813 352.320313 L 771.015625 352.320313 L 770.902344 352.3125 L 770.792969 352.300781 L 770.574219 352.269531 L 770.472656 352.246094 L 770.371094 352.21875 L 770.269531 352.1875 L 770.171875 352.152344 L 770.074219 352.113281 L 769.894531 352.019531 L 769.808594 351.96875 L 769.726563 351.917969 L 769.644531 351.859375 L 769.488281 351.734375 L 769.414063 351.664063 L 769.34375 351.59375 L 769.273438 351.515625 L 769.207031 351.4375 L 769.144531 351.351563 L 769.085938 351.265625 L 769.03125 351.179688 L 768.976563 351.085938 L 768.929688 350.992188 L 768.878906 350.894531 L 768.835938 350.792969 L 768.792969 350.6875 L 768.753906 350.582031 L 768.722656 350.472656 L 768.691406 350.355469 L 768.664063 350.242188 L 768.625 350 L 768.609375 349.875 L 768.59375 349.746094 L 768.585938 349.617188 L 768.578125 349.351563 L 768.585938 349.085938 L 768.59375 348.957031 L 768.609375 348.832031 L 768.625 348.710938 L 768.664063 348.46875 L 768.691406 348.355469 L 768.753906 348.128906 L 768.792969 348.019531 L 768.835938 347.917969 L 768.878906 347.8125 L 768.929688 347.714844 L 768.976563 347.621094 L 769.03125 347.527344 L 769.085938 347.441406 L 769.144531 347.355469 L 769.207031 347.273438 L 769.273438 347.195313 L 769.34375 347.117188 L 769.414063 347.042969 L 769.488281 346.972656 L 769.566406 346.90625 L 769.644531 346.84375 L 769.726563 346.785156 L 769.808594 346.730469 L 769.894531 346.679688 L 769.984375 346.632813 L 770.074219 346.589844 L 770.171875 346.550781 L 770.269531 346.515625 L 770.371094 346.484375 L 770.472656 346.457031 L 770.574219 346.433594 L 770.683594 346.414063 L 770.792969 346.398438 L 770.902344 346.390625 L 771.015625 346.382813 L 771.132813 346.378906 L 771.246094 346.382813 L 771.464844 346.398438 L 771.570313 346.414063 L 771.671875 346.433594 L 771.773438 346.457031 L 771.875 346.484375 L 771.96875 346.515625 L 772.0625 346.550781 L 772.15625 346.589844 L 772.242188 346.632813 L 772.328125 346.679688 L 772.414063 346.730469 L 772.496094 346.78125 L 772.574219 346.839844 L 772.648438 346.898438 L 772.722656 346.964844 L 772.792969 347.03125 L 772.859375 347.097656 L 772.925781 347.171875 L 772.988281 347.246094 L 773.046875 347.324219 L 773.101563 347.402344 L 773.15625 347.484375 L 773.203125 347.570313 L 773.296875 347.75 L 773.335938 347.84375 L 773.375 347.941406 L 773.410156 348.042969 L 773.472656 348.246094 L 773.5 348.355469 L 773.519531 348.460938 L 773.539063 348.574219 L 773.554688 348.683594 L 773.570313 348.796875 L 773.578125 348.914063 L 773.582031 349.03125 L 773.585938 349.152344 L 773.585938 349.570313 L 769.503906 349.570313 L 769.503906 349.90625 L 769.511719 350.046875 L 769.519531 350.117188 L 769.53125 350.1875 L 769.542969 350.253906 L 769.574219 350.386719 L 769.59375 350.453125 L 769.613281 350.515625 L 769.636719 350.578125 L 769.664063 350.636719 L 769.695313 350.695313 L 769.722656 350.75 L 769.757813 350.804688 L 769.789063 350.859375 L 769.824219 350.910156 L 769.863281 350.960938 L 769.902344 351.007813 L 769.988281 351.101563 L 770.035156 351.144531 L 770.082031 351.183594 L 770.132813 351.222656 L 770.1875 351.261719 L 770.238281 351.296875 L 770.292969 351.332031 L 770.351563 351.363281 L 770.410156 351.390625 L 770.535156 351.445313 L 770.667969 351.484375 L 770.738281 351.503906 L 770.808594 351.515625 L 770.882813 351.53125 L 771.03125 351.546875 L 771.109375 351.550781 L 771.1875 351.550781 L 771.292969 351.546875 L 771.394531 351.539063 L 771.496094 351.527344 L 771.59375 351.511719 L 771.691406 351.488281 L 771.78125 351.460938 L 771.871094 351.425781 L 771.957031 351.386719 L 772.039063 351.34375 L 772.121094 351.296875 L 772.199219 351.246094 L 772.277344 351.1875 L 772.347656 351.125 L 772.417969 351.058594 L 772.480469 350.988281 L 772.542969 350.914063 L 772.601563 350.835938 L 772.703125 350.664063 L 772.75 350.570313 L 773.375 351.023438 L 773.316406 351.136719 L 773.253906 351.246094 L 773.183594 351.351563 L 773.105469 351.453125 L 773.023438 351.550781 L 772.933594 351.644531 L 772.839844 351.730469 L 772.738281 351.816406 L 772.632813 351.894531 L 772.515625 351.96875 L 772.398438 352.035156 L 772.277344 352.09375 L 772.148438 352.148438 L 772.015625 352.195313 L 771.878906 352.234375 L 771.738281 352.265625 L 771.59375 352.289063 L 771.445313 352.304688 L 771.289063 352.316406 Z M 771.132813 347.117188 L 771.058594 347.117188 L 770.988281 347.121094 L 770.917969 347.128906 L 770.851563 347.136719 L 770.785156 347.152344 L 770.71875 347.164063 L 770.53125 347.222656 L 770.472656 347.25 L 770.414063 347.273438 L 770.355469 347.300781 L 770.246094 347.363281 L 770.144531 347.433594 L 770.09375 347.472656 L 770.046875 347.511719 L 770 347.554688 L 769.953125 347.601563 L 769.914063 347.648438 L 769.835938 347.75 L 769.800781 347.800781 L 769.765625 347.855469 L 769.734375 347.910156 L 769.703125 347.96875 L 769.675781 348.027344 L 769.648438 348.089844 L 769.601563 348.214844 L 769.582031 348.277344 L 769.5625 348.34375 L 769.546875 348.410156 L 769.523438 348.542969 L 769.515625 348.613281 L 769.507813 348.6875 L 769.503906 348.757813 L 769.503906 348.910156 L 772.636719 348.910156 L 772.636719 348.789063 L 772.632813 348.640625 L 772.621094 348.5 L 772.601563 348.363281 L 772.570313 348.230469 L 772.535156 348.109375 L 772.488281 347.988281 L 772.433594 347.878906 L 772.371094 347.773438 L 772.300781 347.671875 L 772.21875 347.578125 L 772.136719 347.492188 L 772.046875 347.414063 L 771.953125 347.34375 L 771.851563 347.285156 L 771.746094 347.234375 L 771.632813 347.191406 L 771.515625 347.160156 L 771.394531 347.136719 L 771.265625 347.121094 Z M 771.132813 347.117188 "/>
<path style=" stroke:none;fill-rule:nonzero;fill:rgb(0%,0%,0%);fill-opacity:1;" d="M 777.171875 352.320313 L 777.054688 352.320313 L 776.941406 352.3125 L 776.832031 352.300781 L 776.613281 352.269531 L 776.511719 352.246094 L 776.410156 352.21875 L 776.308594 352.1875 L 776.210938 352.152344 L 776.113281 352.113281 L 775.933594 352.019531 L 775.847656 351.96875 L 775.765625 351.917969 L 775.683594 351.859375 L 775.527344 351.734375 L 775.453125 351.664063 L 775.382813 351.59375 L 775.3125 351.515625 L 775.246094 351.4375 L 775.183594 351.351563 L 775.125 351.265625 L 775.070313 351.179688 L 775.015625 351.085938 L 774.96875 350.992188 L 774.917969 350.894531 L 774.875 350.792969 L 774.832031 350.6875 L 774.792969 350.582031 L 774.761719 350.472656 L 774.730469 350.355469 L 774.703125 350.242188 L 774.664063 350 L 774.648438 349.875 L 774.632813 349.746094 L 774.625 349.617188 L 774.617188 349.351563 L 774.625 349.085938 L 774.632813 348.957031 L 774.648438 348.832031 L 774.664063 348.710938 L 774.703125 348.46875 L 774.730469 348.355469 L 774.792969 348.128906 L 774.832031 348.019531 L 774.875 347.917969 L 774.917969 347.8125 L 774.96875 347.714844 L 775.015625 347.621094 L 775.070313 347.527344 L 775.125 347.441406 L 775.183594 347.355469 L 775.246094 347.273438 L 775.3125 347.195313 L 775.382813 347.117188 L 775.453125 347.042969 L 775.527344 346.972656 L 775.605469 346.90625 L 775.683594 346.84375 L 775.765625 346.785156 L 775.847656 346.730469 L 775.933594 346.679688 L 776.023438 346.632813 L 776.113281 346.589844 L 776.210938 346.550781 L 776.308594 346.515625 L 776.410156 346.484375 L 776.511719 346.457031 L 776.613281 346.433594 L 776.722656 346.414063 L 776.832031 346.398438 L 776.941406 346.390625 L 777.054688 346.382813 L 777.171875 346.378906 L 777.285156 346.382813 L 777.503906 346.398438 L 777.609375 346.414063 L 777.710938 346.433594 L 777.8125 346.457031 L 777.910156 346.484375 L 778.007813 346.515625 L 778.101563 346.550781 L 778.195313 346.589844 L 778.28125 346.632813 L 778.367188 346.679688 L 778.453125 346.730469 L 778.535156 346.78125 L 778.613281 346.839844 L 778.6875 346.898438 L 778.761719 346.964844 L 778.832031 347.03125 L 778.898438 347.097656 L 778.964844 347.171875 L 779.027344 347.246094 L 779.085938 347.324219 L 779.140625 347.402344 L 779.195313 347.484375 L 779.242188 347.570313 L 779.335938 347.75 L 779.375 347.84375 L 779.414063 347.941406 L 779.449219 348.042969 L 779.511719 348.246094 L 779.539063 348.355469 L 779.558594 348.460938 L 779.578125 348.574219 L 779.59375 348.683594 L 779.609375 348.796875 L 779.617188 348.914063 L 779.621094 349.03125 L 779.625 349.152344 L 779.625 349.570313 L 775.542969 349.570313 L 775.542969 349.90625 L 775.550781 350.046875 L 775.558594 350.117188 L 775.570313 350.1875 L 775.582031 350.253906 L 775.613281 350.386719 L 775.632813 350.453125 L 775.652344 350.515625 L 775.675781 350.578125 L 775.703125 350.636719 L 775.734375 350.695313 L 775.761719 350.75 L 775.796875 350.804688 L 775.828125 350.859375 L 775.863281 350.910156 L 775.902344 350.960938 L 775.941406 351.007813 L 776.027344 351.101563 L 776.074219 351.144531 L 776.121094 351.183594 L 776.222656 351.261719 L 776.332031 351.332031 L 776.390625 351.363281 L 776.449219 351.390625 L 776.574219 351.445313 L 776.707031 351.484375 L 776.777344 351.503906 L 776.847656 351.515625 L 776.921875 351.53125 L 777.070313 351.546875 L 777.148438 351.550781 L 777.226563 351.550781 L 777.332031 351.546875 L 777.433594 351.539063 L 777.535156 351.527344 L 777.632813 351.511719 L 777.730469 351.488281 L 777.820313 351.460938 L 777.910156 351.425781 L 777.996094 351.386719 L 778.078125 351.34375 L 778.160156 351.296875 L 778.238281 351.246094 L 778.316406 351.1875 L 778.386719 351.125 L 778.457031 351.058594 L 778.519531 350.988281 L 778.582031 350.914063 L 778.640625 350.835938 L 778.742188 350.664063 L 778.789063 350.570313 L 779.414063 351.023438 L 779.355469 351.136719 L 779.292969 351.246094 L 779.222656 351.351563 L 779.144531 351.453125 L 779.0625 351.550781 L 778.972656 351.644531 L 778.878906 351.730469 L 778.777344 351.816406 L 778.671875 351.894531 L 778.554688 351.96875 L 778.4375 352.035156 L 778.316406 352.09375 L 778.1875 352.148438 L 778.054688 352.195313 L 777.917969 352.234375 L 777.777344 352.265625 L 777.632813 352.289063 L 777.484375 352.304688 L 777.328125 352.316406 Z M 777.171875 347.117188 L 777.097656 347.117188 L 777.027344 347.121094 L 776.957031 347.128906 L 776.890625 347.136719 L 776.824219 347.152344 L 776.757813 347.164063 L 776.570313 347.222656 L 776.511719 347.25 L 776.453125 347.273438 L 776.394531 347.300781 L 776.285156 347.363281 L 776.183594 347.433594 L 776.132813 347.472656 L 776.085938 347.511719 L 776.039063 347.554688 L 775.992188 347.601563 L 775.953125 347.648438 L 775.875 347.75 L 775.839844 347.800781 L 775.804688 347.855469 L 775.773438 347.910156 L 775.742188 347.96875 L 775.714844 348.027344 L 775.6875 348.089844 L 775.640625 348.214844 L 775.621094 348.277344 L 775.601563 348.34375 L 775.585938 348.410156 L 775.5625 348.542969 L 775.554688 348.613281 L 775.546875 348.6875 L 775.542969 348.757813 L 775.542969 348.910156 L 778.675781 348.910156 L 778.675781 348.789063 L 778.671875 348.640625 L 778.660156 348.5 L 778.640625 348.363281 L 778.609375 348.230469 L 778.574219 348.109375 L 778.527344 347.988281 L 778.472656 347.878906 L 778.410156 347.773438 L 778.339844 347.671875 L 778.257813 347.578125 L 778.175781 347.492188 L 778.085938 347.414063 L 777.992188 347.34375 L 777.890625 347.285156 L 777.785156 347.234375 L 777.671875 347.191406 L 777.554688 347.160156 L 777.433594 347.136719 L 777.304688 347.121094 Z M 777.171875 347.117188 "/>
<path style=" stroke:none;fill-rule:nonzero;fill:rgb(0%,0%,0%);fill-opacity:1;" d="M 784.707031 351.265625 L 784.660156 351.265625 L 784.550781 351.464844 L 784.429688 351.644531 L 784.292969 351.804688 L 784.148438 351.941406 L 783.988281 352.054688 L 783.816406 352.152344 L 783.628906 352.226563 L 783.433594 352.277344 L 783.222656 352.308594 L 783 352.320313 L 782.894531 352.320313 L 782.792969 352.3125 L 782.691406 352.300781 L 782.496094 352.269531 L 782.402344 352.246094 L 782.308594 352.21875 L 782.21875 352.1875 L 782.128906 352.152344 L 782.042969 352.113281 L 781.957031 352.066406 L 781.875 352.019531 L 781.71875 351.917969 L 781.644531 351.859375 L 781.503906 351.734375 L 781.433594 351.664063 L 781.371094 351.59375 L 781.304688 351.515625 L 781.25 351.4375 L 781.191406 351.355469 L 781.140625 351.273438 L 781.089844 351.183594 L 780.996094 350.996094 L 780.957031 350.898438 L 780.914063 350.796875 L 780.878906 350.691406 L 780.84375 350.582031 L 780.816406 350.472656 L 780.789063 350.355469 L 780.765625 350.242188 L 780.746094 350.121094 L 780.730469 350 L 780.714844 349.875 L 780.703125 349.746094 L 780.695313 349.617188 L 780.691406 349.484375 L 780.691406 349.214844 L 780.695313 349.082031 L 780.703125 348.953125 L 780.714844 348.824219 L 780.730469 348.703125 L 780.746094 348.578125 L 780.765625 348.460938 L 780.789063 348.34375 L 780.84375 348.117188 L 780.914063 347.90625 L 780.957031 347.804688 L 780.996094 347.703125 L 781.042969 347.609375 L 781.089844 347.519531 L 781.140625 347.429688 L 781.191406 347.34375 L 781.25 347.261719 L 781.304688 347.183594 L 781.371094 347.109375 L 781.433594 347.035156 L 781.574219 346.902344 L 781.644531 346.84375 L 781.71875 346.785156 L 781.796875 346.730469 L 781.875 346.679688 L 781.957031 346.632813 L 782.042969 346.589844 L 782.128906 346.550781 L 782.21875 346.515625 L 782.308594 346.484375 L 782.402344 346.457031 L 782.496094 346.433594 L 782.59375 346.414063 L 782.691406 346.398438 L 782.894531 346.382813 L 783 346.378906 L 783.117188 346.382813 L 783.230469 346.390625 L 783.449219 346.421875 L 783.550781 346.445313 L 783.648438 346.476563 L 783.746094 346.511719 L 783.839844 346.550781 L 783.925781 346.59375 L 784.011719 346.644531 L 784.097656 346.699219 L 784.175781 346.757813 L 784.25 346.820313 L 784.324219 346.894531 L 784.390625 346.96875 L 784.453125 347.050781 L 784.511719 347.140625 L 784.566406 347.230469 L 784.617188 347.332031 L 784.660156 347.4375 L 784.707031 347.4375 L 784.707031 344.046875 L 785.585938 344.046875 L 785.585938 352.1875 L 784.707031 352.1875 Z M 783.242188 351.527344 L 783.359375 351.527344 L 783.417969 351.523438 L 783.476563 351.515625 L 783.640625 351.492188 L 783.695313 351.480469 L 783.75 351.464844 L 783.804688 351.453125 L 783.859375 351.433594 L 783.910156 351.417969 L 784.011719 351.378906 L 784.058594 351.359375 L 784.152344 351.3125 L 784.195313 351.285156 L 784.234375 351.257813 L 784.277344 351.230469 L 784.316406 351.199219 L 784.351563 351.167969 L 784.421875 351.097656 L 784.484375 351.027344 L 784.511719 350.988281 L 784.535156 350.949219 L 784.5625 350.910156 L 784.609375 350.824219 L 784.628906 350.777344 L 784.675781 350.636719 L 784.6875 350.585938 L 784.695313 350.535156 L 784.699219 350.480469 L 784.703125 350.429688 L 784.707031 350.375 L 784.707031 348.261719 L 784.703125 348.214844 L 784.699219 348.171875 L 784.695313 348.125 L 784.6875 348.082031 L 784.675781 348.039063 L 784.644531 347.953125 L 784.628906 347.914063 L 784.609375 347.871094 L 784.5625 347.792969 L 784.535156 347.75 L 784.511719 347.714844 L 784.484375 347.675781 L 784.421875 347.605469 L 784.386719 347.574219 L 784.351563 347.539063 L 784.316406 347.511719 L 784.277344 347.480469 L 784.234375 347.453125 L 784.195313 347.425781 L 784.152344 347.402344 L 784.105469 347.375 L 784.058594 347.355469 L 784.011719 347.332031 L 783.910156 347.292969 L 783.859375 347.277344 L 783.804688 347.261719 L 783.75 347.242188 L 783.695313 347.230469 L 783.640625 347.214844 L 783.585938 347.203125 L 783.476563 347.1875 L 783.417969 347.179688 L 783.300781 347.171875 L 783.242188 347.171875 L 783.097656 347.175781 L 782.957031 347.191406 L 782.824219 347.214844 L 782.695313 347.25 L 782.574219 347.289063 L 782.460938 347.34375 L 782.351563 347.40625 L 782.25 347.476563 L 782.15625 347.554688 L 782.066406 347.644531 L 781.984375 347.742188 L 781.910156 347.84375 L 781.847656 347.949219 L 781.789063 348.0625 L 781.742188 348.183594 L 781.707031 348.308594 L 781.675781 348.4375 L 781.652344 348.574219 L 781.640625 348.71875 L 781.636719 348.867188 L 781.636719 349.835938 L 781.640625 349.984375 L 781.652344 350.125 L 781.675781 350.265625 L 781.707031 350.394531 L 781.742188 350.523438 L 781.789063 350.640625 L 781.847656 350.757813 L 781.910156 350.867188 L 781.984375 350.96875 L 782.066406 351.066406 L 782.15625 351.15625 L 782.25 351.234375 L 782.351563 351.300781 L 782.460938 351.363281 L 782.574219 351.414063 L 782.695313 351.453125 L 782.824219 351.488281 L 782.957031 351.511719 L 783.097656 351.523438 Z M 783.242188 351.527344 "/>
</g>
</svg>
